<?xml version="1.0" encoding="utf-8"?>
<!-- Generator: Adobe Illustrator 27.9.0, SVG Export Plug-In . SVG Version: 6.00 Build 0)  -->
<svg version="1.1" id="Layer_1" xmlns="http://www.w3.org/2000/svg" xmlns:xlink="http://www.w3.org/1999/xlink" x="0px" y="0px"
	 viewBox="0 0 2000 2000" style="enable-background:new 0 0 2000 2000;" xml:space="preserve">
<style type="text/css">
	.st0{fill:none;stroke:#000000;stroke-width:2;stroke-miterlimit:20;stroke-opacity:0.5;}
	.st1{fill:none;stroke:#000000;stroke-width:2;stroke-miterlimit:20;}
	.st2{fill:none;stroke:#000000;stroke-width:4;stroke-miterlimit:20;stroke-opacity:0.9;}
	.st3{fill:none;stroke:#FFFFFF;stroke-width:6;}
	.st4{font-family:'ArialMT';}
	.st5{font-size:40px;}
	.st6{fill:#969696;}
	.st7{font-family:'Times-Italic';}
	.st8{font-size:56px;}
	
		.st9{fill:none;stroke:#C74440;stroke-width:10;stroke-linecap:round;stroke-linejoin:round;stroke-miterlimit:20;stroke-opacity:0.9;}
	
		.st10{fill:none;stroke:#2D70B3;stroke-width:10;stroke-linecap:round;stroke-linejoin:round;stroke-miterlimit:20;stroke-opacity:0.9;}
</style>
<g transform="scale(2,2)">
	<g id="graphpaper-8bb5f8d5">
		<g id="grid-8bb5f8d5">
			<g>
				<path class="st0" d="M115.5,0v1000"/>
				<path class="st0" d="M211.5,0v1000"/>
				<path class="st0" d="M307.5,0v1000"/>
				<path class="st0" d="M403.5,0v1000"/>
				<path class="st0" d="M500.5,0v1000"/>
				<path class="st0" d="M596.5,0v1000"/>
				<path class="st0" d="M692.5,0v1000"/>
				<path class="st0" d="M788.5,0v1000"/>
				<path class="st0" d="M884.5,0v1000"/>
				<path class="st0" d="M980.5,0v1000"/>
				<path class="st0" d="M0,954.5h1000"/>
				<path class="st0" d="M0,863.5h1000"/>
				<path class="st0" d="M0,772.5h1000"/>
				<path class="st0" d="M0,681.5h1000"/>
				<path class="st0" d="M0,590.5h1000"/>
				<path class="st0" d="M0,409.5h1000"/>
				<path class="st0" d="M0,318.5h1000"/>
				<path class="st0" d="M0,227.5h1000"/>
				<path class="st0" d="M0,136.5h1000"/>
				<path class="st0" d="M0,45.5h1000"/>
				<path class="st1" d="M115.5,0v1000"/>
				<path class="st1" d="M211.5,0v1000"/>
				<path class="st1" d="M307.5,0v1000"/>
				<path class="st1" d="M403.5,0v1000"/>
				<path class="st1" d="M500.5,0v1000"/>
				<path class="st1" d="M596.5,0v1000"/>
				<path class="st1" d="M692.5,0v1000"/>
				<path class="st1" d="M788.5,0v1000"/>
				<path class="st1" d="M884.5,0v1000"/>
				<path class="st1" d="M980.5,0v1000"/>
				<path class="st1" d="M0,954.5h1000"/>
				<path class="st1" d="M0,863.5h1000"/>
				<path class="st1" d="M0,772.5h1000"/>
				<path class="st1" d="M0,681.5h1000"/>
				<path class="st1" d="M0,590.5h1000"/>
				<path class="st1" d="M0,409.5h1000"/>
				<path class="st1" d="M0,318.5h1000"/>
				<path class="st1" d="M0,227.5h1000"/>
				<path class="st1" d="M0,136.5h1000"/>
				<path class="st1" d="M0,45.5h1000"/>
			</g>
		</g>
		<g id="axis-8bb5f8d5">
			<g id="yaxis-8bb5f8d5">
				<g>
					<path class="st2" d="M19,0v1000"/>
				</g>
			</g>
			<g id="xaxis-8bb5f8d5">
				<g>
					<path class="st2" d="M0,500h1000"/>
				</g>
			</g>
			<g>
				<g>
					<text transform="matrix(0.5 0 0 0.5 3.1025 520.4399)" class="st3 st4 st5">0</text>
					<text transform="matrix(0.5 0 0 0.5 3.1025 520.4399)" class="st4 st5">0</text>
				</g>
				<g>
					<text transform="matrix(0.5 0 0 0.5 101.4834 520.4399)" class="st3 st4 st5">0.5</text>
					<text transform="matrix(0.5 0 0 0.5 101.4834 520.4399)" class="st4 st5">0.5</text>
				</g>
				<g>
					<text transform="matrix(0.5 0 0 0.5 205.9771 520.4399)" class="st3 st4 st5">1</text>
					<text transform="matrix(0.5 0 0 0.5 205.9771 520.4399)" class="st4 st5">1</text>
				</g>
				<g>
					<text transform="matrix(0.5 0 0 0.5 293.791 520.4399)" class="st3 st4 st5">1.5</text>
					<text transform="matrix(0.5 0 0 0.5 293.791 520.4399)" class="st4 st5">1.5</text>
				</g>
				<g>
					<text transform="matrix(0.5 0 0 0.5 398.2847 520.4399)" class="st3 st4 st5">2</text>
					<text transform="matrix(0.5 0 0 0.5 398.2847 520.4399)" class="st4 st5">2</text>
				</g>
				<g>
					<text transform="matrix(0.5 0 0 0.5 486.0986 520.4399)" class="st3 st4 st5">2.5</text>
					<text transform="matrix(0.5 0 0 0.5 486.0986 520.4399)" class="st4 st5">2.5</text>
				</g>
				<g>
					<text transform="matrix(0.5 0 0 0.5 590.5923 520.4399)" class="st3 st4 st5">3</text>
					<text transform="matrix(0.5 0 0 0.5 590.5923 520.4399)" class="st4 st5">3</text>
				</g>
				<g>
					<text transform="matrix(0.5 0 0 0.5 678.4062 520.4399)" class="st3 st4 st5">3.5</text>
					<text transform="matrix(0.5 0 0 0.5 678.4062 520.4399)" class="st4 st5">3.5</text>
				</g>
				<g>
					<text transform="matrix(0.5 0 0 0.5 782.8999 520.4399)" class="st3 st4 st5">4</text>
					<text transform="matrix(0.5 0 0 0.5 782.8999 520.4399)" class="st4 st5">4</text>
				</g>
				<g>
					<text transform="matrix(0.5 0 0 0.5 870.7139 520.4399)" class="st3 st4 st5">4.5</text>
					<text transform="matrix(0.5 0 0 0.5 870.7139 520.4399)" class="st4 st5">4.5</text>
				</g>
				<g>
					<text transform="matrix(0.5 0 0 0.5 975.208 520.4399)" class="st3 st4 st5">5</text>
					<text transform="matrix(0.5 0 0 0.5 975.208 520.4399)" class="st4 st5">5</text>
				</g>
				<g>
					<text transform="matrix(0.5 0 0 0.5 3.0186 959.9854)" class="st3 st4 st5">-0.5</text>
					<text transform="matrix(0.5 0 0 0.5 3.0186 959.9854)" class="st6 st4 st5">-0.5</text>
				</g>
				<g>
					<text transform="matrix(0.5 0 0 0.5 3.0186 869.0762)" class="st3 st4 st5">-0.4</text>
					<text transform="matrix(0.5 0 0 0.5 3.0186 869.0762)" class="st6 st4 st5">-0.4</text>
				</g>
				<g>
					<text transform="matrix(0.5 0 0 0.5 3.0186 778.167)" class="st3 st4 st5">-0.3</text>
					<text transform="matrix(0.5 0 0 0.5 3.0186 778.167)" class="st6 st4 st5">-0.3</text>
				</g>
				<g>
					<text transform="matrix(0.5 0 0 0.5 3.0186 687.2583)" class="st3 st4 st5">-0.2</text>
					<text transform="matrix(0.5 0 0 0.5 3.0186 687.2583)" class="st6 st4 st5">-0.2</text>
				</g>
				<g>
					<text transform="matrix(0.5 0 0 0.5 3.0186 596.3491)" class="st3 st4 st5">-0.1</text>
					<text transform="matrix(0.5 0 0 0.5 3.0186 596.3491)" class="st6 st4 st5">-0.1</text>
				</g>
				<g>
					<text transform="matrix(0.5 0 0 0.5 3.0154 414.5312)" class="st3 st4 st5">0.1</text>
					<text transform="matrix(0.5 0 0 0.5 3.0154 414.5312)" class="st6 st4 st5">0.1</text>
				</g>
				<g>
					<text transform="matrix(0.5 0 0 0.5 3.0154 323.6221)" class="st3 st4 st5">0.2</text>
					<text transform="matrix(0.5 0 0 0.5 3.0154 323.6221)" class="st6 st4 st5">0.2</text>
				</g>
				<g>
					<text transform="matrix(0.5 0 0 0.5 3.0154 232.7129)" class="st3 st4 st5">0.3</text>
					<text transform="matrix(0.5 0 0 0.5 3.0154 232.7129)" class="st6 st4 st5">0.3</text>
				</g>
				<g>
					<text transform="matrix(0.5 0 0 0.5 3.0154 141.8037)" class="st3 st4 st5">0.4</text>
					<text transform="matrix(0.5 0 0 0.5 3.0154 141.8037)" class="st6 st4 st5">0.4</text>
				</g>
				<g>
					<text transform="matrix(0.5 0 0 0.5 3.0154 50.8945)" class="st3 st4 st5">0.5</text>
					<text transform="matrix(0.5 0 0 0.5 3.0154 50.8945)" class="st6 st4 st5">0.5</text>
				</g>
			</g>
			<g>
				<text transform="matrix(0.5 0 0 0.5 977.2334 545)" class="st3 st7 st8">t</text>
				<text transform="matrix(0.5 0 0 0.5 977.2334 545)" class="st7 st8">t</text>
			</g>
			<g transform="translate(51.5,35)">
				<text transform="matrix(0.5 0 0 0.5 0 0)" class="st3 st7 st8">u</text>
				<text transform="matrix(0.5 0 0 0.5 0 0)" class="st7 st8">u</text>
			</g>
		</g>
	</g>
	<g id="expressions-8bb5f8d5">
		<g id="sketch-8bb5f8d5">
			<path d="M0,0"/>
			<g>
				<path class="st9" d="M0,500L0,500l19.5,0.3l481,454.3H1000"/>
			</g>
		</g>
		<g id="sketch-8bb5f8d5_00000066512652455013461260000013172955708232788922_">
			<path class="st9" d="M0,0"/>
			<g>
				<path class="st10" d="M0,500L0,500l500.2-0.2L1000,27.3"/>
			</g>
		</g>
	</g>
</g>
</svg>
